# xmcd CD database file
#
# Track frame offsets:
#	150
#	32095
#	60523
#	89549
#	115524
#	152300
#	191723
#	211308
#	221569
#	242895
#	269241
#
# Disc length: 3897 seconds
#
# Revision: 1
# Processed by: cddbd v1.5.2PL0 Copyright (c) Steve Scherf et al.
# Submitted via: CDex 1.70beta2
#
DISCID=9b0f370b
DTITLE=Various Artist - Rêves d'Oasis: Desert Blues Volume 2 [Disc 1]
DYEAR=2003
DGENRE=Blues
TTITLE0=Majid Bekkas: Daymallah
TTITLE1=Boubacar Traoré - Mouso Teke Soma Ye
TTITLE2=Roika Traoré: Laidu
TTITLE3=Bob Brozman and  Djeli Moussa Diawara: Alamny
TTITLE4=Momo Wandel Soumah: Félenko Féfé
TTITLE5=Lobi Traoré: Anunka Ben
TTITLE6=Abaji: Gibran
TTITLE7=Aziza Brahim and Tarba Bibo: Dios Mio!
TTITLE8=Kadda Cherif Hadria: Djezaïr
TTITLE9=Hasna el Becharia: Hakmet Lakdar
TTITLE10=Djelimady Tounkara: Mande Djeliou
EXTD=YEAR: 2003
EXTT0=
EXTT1=
EXTT2=
EXTT3=
EXTT4=
EXTT5=
EXTT6=
EXTT7=
EXTT8=
EXTT9=
EXTT10=
PLAYORDER=
